<?xml version="1.0" encoding="UTF-8"?>
<svg id="Capa_2" data-name="Capa 2" xmlns="http://www.w3.org/2000/svg" viewBox="0 0 40.76 40.76">
  <defs>
    <style>
      .cls-1 {
        fill: #fff;
      }
    </style>
  </defs>
  <g id="Capa_1-2" data-name="Capa 1">
    <g>
      <path class="cls-1" d="M39.25,40.76c-.31-.19-.65-.36-.93-.58-1.79-1.42-3.56-2.85-5.35-4.26-.18-.14-.45-.24-.67-.24-5.62-.01-11.25,0-16.87-.01-2.52,0-4.56-1.56-5.07-3.98-.18-.83-.15-1.71-.12-2.57,.02-.65,.65-1.12,1.3-1.09,.65,.03,1.17,.54,1.21,1.2,.02,.38,0,.77,0,1.15,0,1.66,1.08,2.73,2.74,2.73,5.74,0,11.49,0,17.23,0,.59,0,1.07,.17,1.53,.54,1.2,.98,2.42,1.94,3.63,2.91,.09,.07,.18,.14,.34,.25,0-.19,0-.32,0-.44,0-6.94,0-13.88,0-20.81,0-1.68-.91-2.68-2.58-2.82-.75-.06-1.27-.63-1.23-1.34,.04-.71,.61-1.21,1.37-1.2,2.39,.03,4.51,1.84,4.91,4.2,.01,.09,.05,.17,.08,.25v25.16c-.2,.44-.52,.76-.96,.96h-.56Z"/>
      <path class="cls-1" d="M0,17.65c0-4.15,0-8.3,0-12.45C0,2.69,1.6,.68,4.01,.13,4.41,.04,4.82,0,5.23,0,12.78,0,20.33,0,27.87,0c3.03,0,5.24,2.22,5.24,5.25,0,4.99,0,9.97,0,14.96,0,3.05-2.22,5.26-5.28,5.26-6.02,0-12.04,0-18.06,.01-.23,0-.5,.09-.67,.24-2.21,1.82-4.41,3.66-6.61,5.49-.19,.16-.39,.32-.61,.45-.73,.42-1.61,.05-1.83-.77-.05-.2-.06-.42-.06-.63,0-4.2,0-8.41,0-12.61Zm2.55,10.18c.16-.12,.26-.2,.36-.28,1.64-1.37,3.29-2.73,4.92-4.1,.43-.36,.89-.52,1.45-.52,6.14,0,12.28,0,18.43,0,1.83,0,2.87-1.03,2.87-2.85,0-4.88,0-9.76,0-14.64,0-1.86-1.02-2.88-2.88-2.88-7.43,0-14.86,0-22.29,0-1.83,0-2.86,1.03-2.86,2.86,0,7.31,0,14.62,0,21.93v.49Z"/>
      <path class="cls-1" d="M16.55,10.19c-2.52,0-5.04,0-7.56,0-.96,0-1.58-.84-1.27-1.69,.19-.51,.57-.78,1.1-.84,.13-.01,.26,0,.4,0,4.89,0,9.79,0,14.68,0,.19,0,.37,0,.55,.03,.63,.13,1.06,.71,1.01,1.34-.05,.66-.58,1.17-1.28,1.17-1.71,.01-3.42,0-5.13,0-.84,0-1.67,0-2.51,0Z"/>
      <path class="cls-1" d="M14.01,12.74c1.68,0,3.37,0,5.05,0,.96,0,1.58,.91,1.21,1.76-.23,.53-.66,.78-1.23,.78-1.23,0-2.47,0-3.7,0-2.12,0-4.24,0-6.37,0-.97,0-1.6-.89-1.24-1.74,.23-.55,.67-.8,1.26-.8,1.67,0,3.34,0,5.01,0Z"/>
    </g>
  </g>
</svg>