<?xml version="1.0" encoding="UTF-8"?>
<svg id="Capa_2" data-name="Capa 2" xmlns="http://www.w3.org/2000/svg" viewBox="0 0 35.83 35.12">
  <defs>
    <style>
      .cls-1 {
        fill: #fff;
      }
    </style>
  </defs>
  <g id="Capa_1-2" data-name="Capa 1">
    <g>
      <path class="cls-1" d="M16.84,34.22c-2.88,1.24-5.67,1.25-8.35-.31-2.18-1.27-3.84-3.12-5.23-5.2-4.34-6.51-4.34-15.05-.03-21.57,.23-.35,.49-.51,.92-.47,5.03,.48,9.28,2.55,12.71,6.26,2.88,3.11,4.54,6.8,5.02,11,.25,2.13,.18,4.23-.84,6.2-.7,1.35-1.67,2.47-2.95,3.34-1.16-.78-2.18-1.7-3.1-2.75-2.66-3.04-4.27-6.61-5.15-10.51-.38-1.68-.56-3.41-.83-5.12-.02-.13-.03-.26-.05-.4-.06-.43-.35-.69-.71-.64-.38,.05-.6,.37-.55,.83,.09,.83,.17,1.67,.29,2.5,.5,3.49,1.44,6.85,3.09,9.98,1.38,2.61,3.18,4.89,5.55,6.68,.05,.04,.1,.09,.2,.18Z"/>
      <path class="cls-1" d="M20.9,16.45c-1.59-2.99-3.77-5.46-6.58-7.43,.29-.42,.55-.83,.84-1.22C18.44,3.53,22.73,.98,28.06,.19c1.99-.29,3.98-.23,5.97,.09,.38,.06,.57,.27,.69,.63,1.9,5.76,1.35,11.28-1.72,16.5-2.01,3.43-4.88,5.96-8.49,7.63-.38,.18-.79,.32-1.25,.5-.1-2.77-.67-5.38-1.79-7.89,.15-.09,.28-.17,.42-.25,2.8-1.69,5.1-3.87,6.44-6.9,.42-.94,.66-1.96,.94-2.96,.13-.45-.08-.79-.46-.86-.4-.07-.68,.13-.77,.61-.85,4.15-3.44,6.96-6.95,9.08-.05,.03-.12,.05-.2,.09Z"/>
    </g>
  </g>
</svg>