<?xml version="1.0" encoding="UTF-8"?>
<svg id="Capa_2" data-name="Capa 2" xmlns="http://www.w3.org/2000/svg" viewBox="0 0 54.87 53.14">
  <defs>
    <style>
      .cls-1 {
        fill: #fff;
      }
    </style>
  </defs>
  <g id="Capa_1-2" data-name="Capa 1">
    <g>
      <path class="cls-1" d="M54.87,5.03c-.38,.46-.71,.97-1.13,1.39-8.24,8.26-16.49,16.5-24.74,24.75-.26,.26-.55,.52-.88,.69-.57,.3-1.15,.2-1.67-.16-.19-.13-.35-.3-.52-.46C17.55,22.85,9.16,14.46,.77,6.07,.19,5.49-.21,4.86,.12,4.03c.12-.32,.36-.61,.6-.87,.78-.81,1.58-1.6,2.38-2.39,1.02-1.02,1.92-1.01,2.95,.02,6.96,6.96,13.92,13.92,20.87,20.88,.15,.15,.27,.33,.45,.55,.22-.21,.37-.35,.52-.49,6.93-6.93,13.87-13.87,20.8-20.8,.16-.16,.33-.33,.51-.48,.71-.58,1.58-.6,2.24,.02,1.03,.97,2.01,1.98,2.99,2.99,.19,.2,.3,.48,.44,.72v.86Z"/>
      <path class="cls-1" d="M54.87,26.15c-.38,.46-.71,.97-1.13,1.39-8.21,8.23-16.44,16.45-24.66,24.67-.14,.14-.27,.28-.42,.41-.77,.69-1.68,.69-2.46,0-.09-.08-.18-.17-.27-.26C17.55,43.96,9.16,35.57,.77,27.19c-.6-.6-.99-1.25-.65-2.1,.12-.3,.35-.58,.59-.82,.79-.82,1.61-1.62,2.42-2.43,.98-.97,1.89-.96,2.88,.02,4.16,4.15,8.31,8.31,12.47,12.47,2.83,2.83,5.66,5.66,8.48,8.49,.14,.14,.25,.31,.41,.51,.22-.21,.38-.35,.52-.5,6.93-6.93,13.87-13.87,20.8-20.8,.16-.16,.33-.33,.51-.48,.7-.58,1.58-.6,2.24,.02,1.03,.97,2.01,1.98,2.99,2.99,.19,.2,.3,.47,.44,.71v.86Z"/>
    </g>
  </g>
</svg>